<?xml version="1.0" encoding="utf-8"?>
<!-- Generator: Adobe Illustrator 26.0.0, SVG Export Plug-In . SVG Version: 6.00 Build 0)  -->
<svg version="1.1" id="Capa_1" xmlns="http://www.w3.org/2000/svg" xmlns:xlink="http://www.w3.org/1999/xlink" x="0px" y="0px"
	 viewBox="0 0 1309.05 360.23" style="enable-background:new 0 0 1309.05 360.23;" xml:space="preserve">
<style type="text/css">
	.st0{display:none;}
	.st1{display:inline;}
	.st2{fill:#0FB9E1;}
	.st3{fill:#FFFFFF;}
	.st4{fill:#2F4999;}
	.st5{fill:#DB7C11;}
</style>
<g>
	<g>
		<path class="st4" d="M68.92,111.66h81.58l-26.46,160.95h102.89l-10.29,65.9H31.68L68.92,111.66z"/>
		<polygon class="st4" points="446.67,338.51 441.28,111.66 305.56,111.66 219.33,338.51 300.91,338.51 315.36,296.13 
			333.49,242.96 365.09,149.63 365.09,242.96 365.09,296.13 365.09,338.51 		"/>
		<path class="st4" d="M499.09,111.66h81.58l-37.48,226.85h-81.58L499.09,111.66z"/>
		<path class="st4" d="M672.28,224.84l-18.62,113.67h-81.58l37.24-226.85h81.58l48.26,100.2l16.41-100.2h81.58l-37.24,226.85h-81.58
			L672.28,224.84z"/>
		<path class="st4" d="M861.64,111.66h175.65l-10.53,57.81h-93.09l-4.41,26.7h81.33l-10.54,58.06H919.7l-4.41,26.21h104.12
			l-10.29,58.06H824.16L861.64,111.66z"/>
		<path class="st4" d="M1138.22,171.19h-96.52l10.53-59.53h225.14l-130.57,167.32h96.77l-10.53,59.53h-231.75L1138.22,171.19z"/>
	</g>
	<g>
		<g>
			<path class="st5" d="M96.86,21.72c3.35,0,6.29,0.37,8.8,1.11s4.53,1.51,6.06,2.33c1.53,0.82,2.45,1.36,2.78,1.64l-5.89,9.86
				c-0.44-0.33-1.18-0.8-2.23-1.43c-1.05-0.63-2.29-1.19-3.72-1.68c-1.43-0.49-2.93-0.74-4.48-0.74c-2.1,0-3.8,0.38-5.09,1.13
				c-1.3,0.75-1.94,1.86-1.94,3.33c0,1.01,0.35,1.92,1.04,2.72c0.7,0.8,1.76,1.57,3.19,2.29s3.25,1.51,5.46,2.35
				c2.02,0.74,3.91,1.61,5.69,2.62c1.77,1.01,3.33,2.2,4.68,3.58c1.35,1.38,2.42,2.97,3.21,4.77c0.79,1.8,1.19,3.85,1.19,6.14
				c0,2.73-0.56,5.09-1.68,7.1s-2.64,3.66-4.56,4.97c-1.92,1.31-4.11,2.29-6.55,2.93c-2.44,0.64-4.97,0.96-7.59,0.96
				c-3.71,0-7.03-0.42-9.96-1.27c-2.93-0.84-5.3-1.76-7.1-2.74c-1.8-0.98-2.88-1.64-3.23-1.96l6.1-10.27
				c0.33,0.25,0.96,0.64,1.9,1.19c0.94,0.55,2.09,1.11,3.46,1.7c1.36,0.59,2.82,1.08,4.36,1.49c1.54,0.41,3.06,0.61,4.56,0.61
				c2.51,0,4.39-0.48,5.65-1.45c1.25-0.97,1.88-2.24,1.88-3.83c0-1.17-0.4-2.22-1.19-3.15c-0.79-0.93-1.98-1.81-3.56-2.64
				c-1.58-0.83-3.56-1.71-5.93-2.64c-2.37-0.95-4.59-2.11-6.65-3.48c-2.06-1.36-3.73-3.07-5.01-5.11c-1.28-2.04-1.92-4.58-1.92-7.61
				s0.85-5.65,2.56-7.88c1.7-2.22,3.95-3.93,6.75-5.14C90.67,22.32,93.67,21.72,96.86,21.72z"/>
			<path class="st5" d="M154.18,22.7h12.23v33.18c0,4.45-0.87,8.3-2.62,11.56c-1.75,3.26-4.24,5.78-7.49,7.57
				c-3.25,1.79-7.12,2.68-11.62,2.68c-4.53,0-8.43-0.89-11.7-2.68c-3.27-1.79-5.78-4.31-7.51-7.57c-1.73-3.26-2.6-7.11-2.6-11.56
				V22.7h12.19v32.53c0,2.46,0.39,4.53,1.17,6.22c0.78,1.69,1.89,2.97,3.33,3.83c1.45,0.86,3.15,1.29,5.12,1.29
				c1.94,0,3.61-0.43,5.03-1.29c1.42-0.86,2.52-2.13,3.29-3.83c0.78-1.69,1.17-3.76,1.17-6.22V22.7z"/>
			<path class="st5" d="M174.8,22.7h22.01c3.14,0,5.93,0.65,8.39,1.96c2.45,1.31,4.4,3.2,5.83,5.67c1.43,2.47,2.15,5.41,2.15,8.82
				c0,3.41-0.61,6.2-1.82,8.37c-1.21,2.17-2.67,3.79-4.36,4.87c-1.69,1.08-3.26,1.73-4.71,1.94l13.13,22.38h-13.75l-11.7-21.44
				h-2.95v21.44H174.8V22.7z M187.04,46.8h5.4c2.18,0,4.09-0.53,5.73-1.6c1.64-1.06,2.45-2.95,2.45-5.64c0-2.7-0.81-4.58-2.41-5.63
				c-1.61-1.05-3.51-1.58-5.69-1.58h-5.48V46.8z"/>
			<path class="st5" d="M231.72,33.42h-12.89V22.7h37.97v10.72h-12.85v43.29h-12.23V33.42z"/>
			<path class="st5" d="M263.84,22.7h12.23v54.01h-12.23V22.7z"/>
			<path class="st5" d="M285.64,22.7h16.24c5.76,0,10.52,1.15,14.3,3.46s6.61,5.49,8.49,9.55c1.88,4.06,2.82,8.71,2.82,13.95
				c0,5.27-0.94,9.93-2.82,13.99s-4.71,7.26-8.49,9.57c-3.78,2.32-8.54,3.48-14.3,3.48h-16.24V22.7z M297.84,33.55v32.32h2.95
				c3.08,0,5.63-0.7,7.65-2.11c2.02-1.4,3.54-3.33,4.56-5.77c1.02-2.44,1.53-5.19,1.53-8.24c0-3.08-0.5-5.84-1.49-8.28
				c-1-2.44-2.52-4.37-4.56-5.79c-2.05-1.42-4.61-2.13-7.69-2.13H297.84z"/>
			<path class="st5" d="M332.94,49.67c0-3.93,0.7-7.59,2.09-10.98c1.39-3.4,3.34-6.36,5.85-8.9c2.51-2.54,5.46-4.51,8.84-5.93
				c3.38-1.42,7.04-2.13,10.97-2.13c3.98,0,7.66,0.71,11.03,2.13c3.37,1.42,6.3,3.4,8.8,5.93c2.5,2.54,4.43,5.5,5.81,8.9
				c1.38,3.4,2.07,7.06,2.07,10.98c0,3.96-0.67,7.63-2,11.03c-1.34,3.4-3.25,6.37-5.73,8.92c-2.48,2.55-5.42,4.53-8.8,5.95
				c-3.38,1.42-7.11,2.13-11.17,2.13c-4.15,0-7.92-0.71-11.31-2.13c-3.4-1.42-6.32-3.4-8.78-5.95c-2.45-2.55-4.34-5.52-5.67-8.92
				C333.6,57.3,332.94,53.62,332.94,49.67z M345.67,49.67c0,3.08,0.63,5.87,1.9,8.37c1.27,2.5,3.03,4.48,5.28,5.95
				c2.25,1.47,4.86,2.21,7.84,2.21c2.97,0,5.59-0.74,7.84-2.21c2.25-1.47,4.01-3.46,5.28-5.95c1.27-2.49,1.9-5.28,1.9-8.37
				c0-3.08-0.63-5.86-1.9-8.35c-1.27-2.48-3.03-4.47-5.28-5.95c-2.25-1.48-4.86-2.23-7.84-2.23c-2.97,0-5.58,0.74-7.84,2.23
				c-2.25,1.49-4.01,3.47-5.28,5.95C346.3,43.8,345.67,46.58,345.67,49.67z"/>
			<path class="st5" d="M395.13,22.7h22.01c3.14,0,5.93,0.65,8.39,1.96c2.45,1.31,4.4,3.2,5.83,5.67c1.43,2.47,2.15,5.41,2.15,8.82
				c0,3.41-0.61,6.2-1.82,8.37c-1.21,2.17-2.67,3.79-4.36,4.87c-1.69,1.08-3.26,1.73-4.71,1.94l13.13,22.38h-13.75l-11.7-21.44
				h-2.95v21.44h-12.23V22.7z M407.37,46.8h5.4c2.18,0,4.09-0.53,5.73-1.6c1.64-1.06,2.45-2.95,2.45-5.64c0-2.7-0.81-4.58-2.41-5.63
				c-1.61-1.05-3.51-1.58-5.69-1.58h-5.48V46.8z"/>
			<polygon class="st5" points="469.52,22.7 457.37,22.7 436.01,76.71 449.1,76.71 453.07,65.87 457.16,55.15 463.42,37.43 
				463.54,37.43 469.8,55.15 473.85,65.87 477.78,76.71 490.83,76.71 			"/>
		</g>
	</g>
</g>
</svg>
